<svg width="1584" height="396" viewBox="0 0 1584 396" fill="none" xmlns="http://www.w3.org/2000/svg">
<g clip-path="url(#clip0_1827_2)">
<rect width="1584" height="396" fill="#0B0E14"/>
<rect x="333.699" y="-607.609" width="797.427" height="1025.03" transform="rotate(34.5391 333.699 -607.609)" fill="#11141D"/>
<path d="M94.3582 210V204.641H101.36V165.343H94.3582V159.985H113.864C120.438 159.985 125.511 161.652 129.083 164.986C132.703 168.32 134.513 173.441 134.513 180.348V189.637C134.513 196.591 132.703 201.736 129.083 205.07C125.511 208.357 120.438 210 113.864 210H94.3582ZM107.362 204.57H113.864C118.723 204.57 122.391 203.379 124.868 200.997C127.345 198.616 128.583 194.924 128.583 189.922V180.134C128.583 175.037 127.345 171.321 124.868 168.987C122.391 166.653 118.723 165.486 113.864 165.486H107.362V204.57ZM155.026 211C152.597 211 150.382 210.572 148.381 209.714C146.38 208.857 144.808 207.618 143.665 205.999C142.522 204.379 141.95 202.402 141.95 200.068C141.95 197.687 142.522 195.734 143.665 194.209C144.808 192.637 146.38 191.47 148.381 190.708C150.382 189.899 152.62 189.494 155.097 189.494H166.887V186.921C166.887 184.444 166.148 182.491 164.672 181.062C163.243 179.633 161.099 178.919 158.241 178.919C155.431 178.919 153.24 179.61 151.668 180.991C150.096 182.325 149.024 184.135 148.452 186.421L143.165 184.706C143.737 182.753 144.642 180.991 145.88 179.419C147.119 177.8 148.762 176.513 150.81 175.561C152.906 174.56 155.407 174.06 158.313 174.06C162.79 174.06 166.268 175.227 168.744 177.561C171.221 179.848 172.46 183.087 172.46 187.279V203.069C172.46 204.498 173.127 205.213 174.461 205.213H177.676V210H172.746C171.174 210 169.911 209.571 168.959 208.714C168.006 207.809 167.53 206.618 167.53 205.141V204.784H166.672C166.148 205.689 165.434 206.642 164.529 207.642C163.671 208.595 162.481 209.381 160.956 210C159.432 210.667 157.455 211 155.026 211ZM155.669 206.142C159.003 206.142 161.695 205.165 163.743 203.212C165.839 201.212 166.887 198.425 166.887 194.852V194.067H155.312C153.073 194.067 151.215 194.567 149.739 195.567C148.31 196.52 147.595 197.972 147.595 199.925C147.595 201.878 148.333 203.403 149.81 204.498C151.334 205.594 153.287 206.142 155.669 206.142ZM195.965 210C193.964 210 192.416 209.452 191.321 208.357C190.273 207.261 189.749 205.761 189.749 203.855V179.991H179.245V175.061H189.749V162.628H195.393V175.061H206.825V179.991H195.393V202.998C195.393 204.427 196.084 205.141 197.465 205.141H205.254V210H195.965ZM226.477 211C224.047 211 221.832 210.572 219.832 209.714C217.831 208.857 216.259 207.618 215.116 205.999C213.973 204.379 213.401 202.402 213.401 200.068C213.401 197.687 213.973 195.734 215.116 194.209C216.259 192.637 217.831 191.47 219.832 190.708C221.832 189.899 224.071 189.494 226.548 189.494H238.337V186.921C238.337 184.444 237.599 182.491 236.122 181.062C234.693 179.633 232.55 178.919 229.692 178.919C226.881 178.919 224.69 179.61 223.118 180.991C221.547 182.325 220.475 184.135 219.903 186.421L214.616 184.706C215.187 182.753 216.092 180.991 217.331 179.419C218.569 177.8 220.213 176.513 222.261 175.561C224.357 174.56 226.858 174.06 229.763 174.06C234.241 174.06 237.718 175.227 240.195 177.561C242.672 179.848 243.911 183.087 243.911 187.279V203.069C243.911 204.498 244.577 205.213 245.911 205.213H249.126V210H244.196C242.624 210 241.362 209.571 240.409 208.714C239.457 207.809 238.98 206.618 238.98 205.141V204.784H238.123C237.599 205.689 236.885 206.642 235.98 207.642C235.122 208.595 233.931 209.381 232.407 210C230.883 210.667 228.906 211 226.477 211ZM227.12 206.142C230.454 206.142 233.145 205.165 235.194 203.212C237.289 201.212 238.337 198.425 238.337 194.852V194.067H226.762C224.524 194.067 222.666 194.567 221.189 195.567C219.76 196.52 219.046 197.972 219.046 199.925C219.046 201.878 219.784 203.403 221.261 204.498C222.785 205.594 224.738 206.142 227.12 206.142ZM291.572 211C287.952 211 284.713 210.357 281.855 209.071C278.997 207.785 276.734 205.856 275.067 203.284C273.447 200.664 272.638 197.401 272.638 193.495V191.994H278.568V193.495C278.568 197.639 279.783 200.735 282.212 202.783C284.641 204.784 287.761 205.784 291.572 205.784C295.478 205.784 298.455 204.903 300.503 203.141C302.552 201.378 303.576 199.163 303.576 196.496C303.576 194.638 303.099 193.161 302.147 192.066C301.242 190.97 299.956 190.089 298.288 189.422C296.621 188.708 294.668 188.088 292.429 187.564L288.714 186.636C285.808 185.873 283.236 184.945 280.997 183.849C278.759 182.753 276.996 181.324 275.71 179.562C274.472 177.752 273.852 175.442 273.852 172.631C273.852 169.821 274.543 167.392 275.924 165.343C277.353 163.295 279.33 161.723 281.855 160.628C284.427 159.532 287.38 158.984 290.715 158.984C294.097 158.984 297.121 159.58 299.789 160.77C302.504 161.914 304.624 163.629 306.148 165.915C307.72 168.154 308.506 170.988 308.506 174.418V177.418H302.575V174.418C302.575 171.988 302.051 170.035 301.004 168.559C300.003 167.082 298.598 165.986 296.788 165.272C295.026 164.557 293.001 164.2 290.715 164.2C287.428 164.2 284.784 164.938 282.784 166.415C280.783 167.844 279.783 169.892 279.783 172.56C279.783 174.322 280.211 175.751 281.069 176.847C281.926 177.942 283.141 178.848 284.713 179.562C286.285 180.229 288.166 180.824 290.357 181.348L294.073 182.277C296.979 182.896 299.575 183.754 301.861 184.849C304.195 185.897 306.053 187.35 307.434 189.208C308.815 191.018 309.506 193.4 309.506 196.353C309.506 199.306 308.768 201.878 307.291 204.07C305.815 206.261 303.719 207.976 301.004 209.214C298.336 210.405 295.192 211 291.572 211ZM334.963 211C331.438 211 328.342 210.262 325.674 208.785C323.007 207.261 320.935 205.141 319.458 202.426C317.981 199.711 317.243 196.567 317.243 192.995V192.137C317.243 188.517 317.981 185.35 319.458 182.634C320.935 179.919 322.983 177.823 325.603 176.347C328.223 174.822 331.223 174.06 334.605 174.06C337.892 174.06 340.798 174.775 343.322 176.204C345.847 177.585 347.824 179.586 349.253 182.206C350.682 184.826 351.396 187.898 351.396 191.423V193.995H322.888C323.03 197.758 324.245 200.711 326.532 202.855C328.818 204.951 331.676 205.999 335.106 205.999C338.107 205.999 340.417 205.308 342.036 203.927C343.656 202.545 344.894 200.902 345.752 198.997L350.61 201.354C349.896 202.831 348.896 204.308 347.609 205.784C346.371 207.261 344.728 208.5 342.679 209.5C340.679 210.5 338.107 211 334.963 211ZM322.959 189.351H345.68C345.49 186.112 344.37 183.587 342.322 181.777C340.322 179.967 337.749 179.062 334.605 179.062C331.414 179.062 328.794 179.967 326.746 181.777C324.698 183.587 323.435 186.112 322.959 189.351ZM361.242 210V175.061H366.744V180.991H367.744C368.506 179.324 369.792 177.823 371.602 176.49C373.46 175.108 376.175 174.418 379.748 174.418C382.368 174.418 384.702 174.965 386.75 176.061C388.846 177.157 390.513 178.776 391.751 180.92C392.99 183.063 393.609 185.707 393.609 188.851V210H387.965V189.279C387.965 185.802 387.083 183.277 385.321 181.706C383.606 180.134 381.272 179.348 378.319 179.348C374.937 179.348 372.174 180.443 370.03 182.634C367.935 184.826 366.887 188.088 366.887 192.423V210H361.242ZM416.946 210C414.945 210 413.397 209.452 412.301 208.357C411.253 207.261 410.729 205.761 410.729 203.855V179.991H400.226V175.061H410.729V162.628H416.374V175.061H427.806V179.991H416.374V202.998C416.374 204.427 417.065 205.141 418.446 205.141H426.234V210H416.946ZM436.949 210V175.061H442.594V210H436.949ZM439.807 169.63C438.569 169.63 437.521 169.225 436.663 168.416C435.854 167.606 435.449 166.582 435.449 165.343C435.449 164.057 435.854 163.009 436.663 162.2C437.521 161.39 438.569 160.985 439.807 160.985C441.046 160.985 442.07 161.39 442.879 162.2C443.689 163.009 444.094 164.057 444.094 165.343C444.094 166.582 443.689 167.606 442.879 168.416C442.07 169.225 441.046 169.63 439.807 169.63ZM454.463 210V175.061H459.965V180.991H460.965C461.727 179.324 463.013 177.823 464.823 176.49C466.681 175.108 469.396 174.418 472.969 174.418C475.588 174.418 477.922 174.965 479.971 176.061C482.067 177.157 483.734 178.776 484.972 180.92C486.211 183.063 486.83 185.707 486.83 188.851V210H481.185V189.279C481.185 185.802 480.304 183.277 478.542 181.706C476.827 180.134 474.493 179.348 471.54 179.348C468.158 179.348 465.395 180.443 463.251 182.634C461.155 184.826 460.107 188.088 460.107 192.423V210H454.463ZM514.287 211C510.762 211 507.666 210.262 504.999 208.785C502.331 207.261 500.259 205.141 498.782 202.426C497.306 199.711 496.567 196.567 496.567 192.995V192.137C496.567 188.517 497.306 185.35 498.782 182.634C500.259 179.919 502.307 177.823 504.927 176.347C507.547 174.822 510.548 174.06 513.93 174.06C517.217 174.06 520.122 174.775 522.647 176.204C525.171 177.585 527.148 179.586 528.577 182.206C530.006 184.826 530.721 187.898 530.721 191.423V193.995H502.212C502.355 197.758 503.57 200.711 505.856 202.855C508.142 204.951 511 205.999 514.43 205.999C517.431 205.999 519.741 205.308 521.361 203.927C522.98 202.545 524.219 200.902 525.076 198.997L529.935 201.354C529.22 202.831 528.22 204.308 526.934 205.784C525.695 207.261 524.052 208.5 522.004 209.5C520.003 210.5 517.431 211 514.287 211ZM502.283 189.351H525.005C524.814 186.112 523.695 183.587 521.647 181.777C519.646 179.967 517.074 179.062 513.93 179.062C510.738 179.062 508.119 179.967 506.07 181.777C504.022 183.587 502.76 186.112 502.283 189.351ZM540.566 210V159.985H546.211V210H540.566Z" fill="url(#paint0_linear_1827_2)"/>
<path d="M92.76 257V241.6H94.608V257H92.76ZM98.1971 257V246.242H99.8911V248.068H100.199C100.434 247.555 100.83 247.093 101.387 246.682C101.959 246.257 102.795 246.044 103.895 246.044C104.702 246.044 105.42 246.213 106.051 246.55C106.696 246.887 107.21 247.386 107.591 248.046C107.972 248.706 108.163 249.52 108.163 250.488V257H106.425V250.62C106.425 249.549 106.154 248.772 105.611 248.288C105.083 247.804 104.364 247.562 103.455 247.562C102.414 247.562 101.563 247.899 100.903 248.574C100.258 249.249 99.9351 250.253 99.9351 251.588V257H98.1971ZM115.349 257C114.733 257 114.256 256.831 113.919 256.494C113.596 256.157 113.435 255.695 113.435 255.108V247.76H110.201V246.242H113.435V242.414H115.173V246.242H118.693V247.76H115.173V254.844C115.173 255.284 115.385 255.504 115.811 255.504H118.209V257H115.349ZM126.049 257.308C124.964 257.308 124.01 257.081 123.189 256.626C122.368 256.157 121.73 255.504 121.275 254.668C120.82 253.832 120.593 252.864 120.593 251.764V251.5C120.593 250.385 120.82 249.41 121.275 248.574C121.73 247.738 122.36 247.093 123.167 246.638C123.974 246.169 124.898 245.934 125.939 245.934C126.951 245.934 127.846 246.154 128.623 246.594C129.4 247.019 130.009 247.635 130.449 248.442C130.889 249.249 131.109 250.195 131.109 251.28V252.072H122.331C122.375 253.231 122.749 254.14 123.453 254.8C124.157 255.445 125.037 255.768 126.093 255.768C127.017 255.768 127.728 255.555 128.227 255.13C128.726 254.705 129.107 254.199 129.371 253.612L130.867 254.338C130.647 254.793 130.339 255.247 129.943 255.702C129.562 256.157 129.056 256.538 128.425 256.846C127.809 257.154 127.017 257.308 126.049 257.308ZM122.353 250.642H129.349C129.29 249.645 128.946 248.867 128.315 248.31C127.699 247.753 126.907 247.474 125.939 247.474C124.956 247.474 124.15 247.753 123.519 248.31C122.888 248.867 122.5 249.645 122.353 250.642ZM134.14 257V241.6H135.878V257H134.14ZM139.533 257V241.6H141.271V257H139.533ZM144.926 257V246.242H146.664V257H144.926ZM145.806 244.57C145.424 244.57 145.102 244.445 144.838 244.196C144.588 243.947 144.464 243.631 144.464 243.25C144.464 242.854 144.588 242.531 144.838 242.282C145.102 242.033 145.424 241.908 145.806 241.908C146.187 241.908 146.502 242.033 146.752 242.282C147.001 242.531 147.126 242.854 147.126 243.25C147.126 243.631 147.001 243.947 146.752 244.196C146.502 244.445 146.187 244.57 145.806 244.57ZM149.79 251.676V251.368C149.79 250.239 150.018 249.271 150.472 248.464C150.927 247.657 151.543 247.034 152.32 246.594C153.098 246.154 153.948 245.934 154.872 245.934C156.002 245.934 156.867 246.154 157.468 246.594C158.084 247.019 158.539 247.496 158.832 248.024H159.14V246.242H160.79V259.508C160.79 260.095 160.629 260.557 160.306 260.894C159.984 261.231 159.514 261.4 158.898 261.4H151.594V259.86H158.436C158.876 259.86 159.096 259.64 159.096 259.2V255.108H158.788C158.612 255.431 158.363 255.746 158.04 256.054C157.718 256.362 157.3 256.619 156.786 256.824C156.273 257.015 155.635 257.11 154.872 257.11C153.948 257.11 153.098 256.89 152.32 256.45C151.543 256.01 150.927 255.387 150.472 254.58C150.018 253.759 149.79 252.791 149.79 251.676ZM155.334 255.57C156.449 255.57 157.351 255.218 158.04 254.514C158.744 253.81 159.096 252.842 159.096 251.61V251.434C159.096 250.187 158.744 249.219 158.04 248.53C157.351 247.826 156.449 247.474 155.334 247.474C154.234 247.474 153.325 247.826 152.606 248.53C151.902 249.219 151.55 250.187 151.55 251.434V251.61C151.55 252.842 151.902 253.81 152.606 254.514C153.325 255.218 154.234 255.57 155.334 255.57ZM169.361 257.308C168.276 257.308 167.323 257.081 166.501 256.626C165.68 256.157 165.042 255.504 164.587 254.668C164.133 253.832 163.905 252.864 163.905 251.764V251.5C163.905 250.385 164.133 249.41 164.587 248.574C165.042 247.738 165.673 247.093 166.479 246.638C167.286 246.169 168.21 245.934 169.251 245.934C170.263 245.934 171.158 246.154 171.935 246.594C172.713 247.019 173.321 247.635 173.761 248.442C174.201 249.249 174.421 250.195 174.421 251.28V252.072H165.643C165.687 253.231 166.061 254.14 166.765 254.8C167.469 255.445 168.349 255.768 169.405 255.768C170.329 255.768 171.041 255.555 171.539 255.13C172.038 254.705 172.419 254.199 172.683 253.612L174.179 254.338C173.959 254.793 173.651 255.247 173.255 255.702C172.874 256.157 172.368 256.538 171.737 256.846C171.121 257.154 170.329 257.308 169.361 257.308ZM165.665 250.642H172.661C172.603 249.645 172.258 248.867 171.627 248.31C171.011 247.753 170.219 247.474 169.251 247.474C168.269 247.474 167.462 247.753 166.831 248.31C166.201 248.867 165.812 249.645 165.665 250.642ZM177.453 257V246.242H179.147V248.068H179.455C179.69 247.555 180.086 247.093 180.643 246.682C181.215 246.257 182.051 246.044 183.151 246.044C183.958 246.044 184.676 246.213 185.307 246.55C185.952 246.887 186.466 247.386 186.847 248.046C187.228 248.706 187.419 249.52 187.419 250.488V257H185.681V250.62C185.681 249.549 185.41 248.772 184.867 248.288C184.339 247.804 183.62 247.562 182.711 247.562C181.67 247.562 180.819 247.899 180.159 248.574C179.514 249.249 179.191 250.253 179.191 251.588V257H177.453ZM194.604 257C193.988 257 193.512 256.831 193.174 256.494C192.852 256.157 192.69 255.695 192.69 255.108V247.76H189.456V246.242H192.69V242.414H194.428V246.242H197.948V247.76H194.428V254.844C194.428 255.284 194.641 255.504 195.066 255.504H197.464V257H194.604ZM204.859 257L209.611 241.6H212.867L217.619 257H215.705L214.517 253.106H207.961L206.773 257H204.859ZM208.423 251.434H214.033L211.393 242.722H211.085L208.423 251.434ZM220.908 257L218.4 241.6H220.248L222.426 255.812H222.734L225.572 241.6H228.872L231.688 255.812H231.996L234.174 241.6H236.022L233.514 257H230.214L227.376 242.7H227.068L224.23 257H220.908ZM243.722 257.308C242.607 257.308 241.61 257.11 240.73 256.714C239.85 256.318 239.153 255.724 238.64 254.932C238.141 254.125 237.892 253.121 237.892 251.918V251.456H239.718V251.918C239.718 253.194 240.092 254.147 240.84 254.778C241.588 255.394 242.549 255.702 243.722 255.702C244.925 255.702 245.841 255.431 246.472 254.888C247.103 254.345 247.418 253.663 247.418 252.842C247.418 252.27 247.271 251.815 246.978 251.478C246.699 251.141 246.303 250.869 245.79 250.664C245.277 250.444 244.675 250.253 243.986 250.092L242.842 249.806C241.947 249.571 241.155 249.285 240.466 248.948C239.777 248.611 239.234 248.171 238.838 247.628C238.457 247.071 238.266 246.359 238.266 245.494C238.266 244.629 238.479 243.881 238.904 243.25C239.344 242.619 239.953 242.135 240.73 241.798C241.522 241.461 242.431 241.292 243.458 241.292C244.499 241.292 245.431 241.475 246.252 241.842C247.088 242.194 247.741 242.722 248.21 243.426C248.694 244.115 248.936 244.988 248.936 246.044V246.968H247.11V246.044C247.11 245.296 246.949 244.695 246.626 244.24C246.318 243.785 245.885 243.448 245.328 243.228C244.785 243.008 244.162 242.898 243.458 242.898C242.446 242.898 241.632 243.125 241.016 243.58C240.4 244.02 240.092 244.651 240.092 245.472C240.092 246.015 240.224 246.455 240.488 246.792C240.752 247.129 241.126 247.408 241.61 247.628C242.094 247.833 242.673 248.017 243.348 248.178L244.492 248.464C245.387 248.655 246.186 248.919 246.89 249.256C247.609 249.579 248.181 250.026 248.606 250.598C249.031 251.155 249.244 251.889 249.244 252.798C249.244 253.707 249.017 254.499 248.562 255.174C248.107 255.849 247.462 256.377 246.626 256.758C245.805 257.125 244.837 257.308 243.722 257.308ZM263.305 257.308C261.471 257.308 260.012 256.78 258.927 255.724C257.841 254.653 257.299 253.099 257.299 251.06V247.54C257.299 245.501 257.841 243.954 258.927 242.898C260.012 241.827 261.471 241.292 263.305 241.292C265.123 241.292 266.517 241.798 267.485 242.81C268.467 243.822 268.959 245.208 268.959 246.968V247.078H267.133V246.902C267.133 245.743 266.817 244.797 266.187 244.064C265.571 243.316 264.61 242.942 263.305 242.942C261.999 242.942 260.98 243.345 260.247 244.152C259.513 244.944 259.147 246.059 259.147 247.496V251.104C259.147 252.541 259.513 253.663 260.247 254.47C260.98 255.262 261.999 255.658 263.305 255.658C264.61 255.658 265.571 255.291 266.187 254.558C266.817 253.81 267.133 252.857 267.133 251.698V251.346H268.959V251.632C268.959 253.392 268.467 254.778 267.485 255.79C266.517 256.802 265.123 257.308 263.305 257.308ZM276.892 257.308C275.806 257.308 274.846 257.081 274.01 256.626C273.188 256.171 272.543 255.533 272.074 254.712C271.619 253.876 271.392 252.893 271.392 251.764V251.478C271.392 250.363 271.619 249.388 272.074 248.552C272.543 247.716 273.188 247.071 274.01 246.616C274.846 246.161 275.806 245.934 276.892 245.934C277.977 245.934 278.93 246.161 279.752 246.616C280.588 247.071 281.233 247.716 281.688 248.552C282.157 249.388 282.392 250.363 282.392 251.478V251.764C282.392 252.893 282.157 253.876 281.688 254.712C281.233 255.533 280.588 256.171 279.752 256.626C278.93 257.081 277.977 257.308 276.892 257.308ZM276.892 255.746C278.036 255.746 278.945 255.387 279.62 254.668C280.309 253.935 280.654 252.952 280.654 251.72V251.522C280.654 250.29 280.309 249.315 279.62 248.596C278.945 247.863 278.036 247.496 276.892 247.496C275.762 247.496 274.853 247.863 274.164 248.596C273.474 249.315 273.13 250.29 273.13 251.522V251.72C273.13 252.952 273.474 253.935 274.164 254.668C274.853 255.387 275.762 255.746 276.892 255.746ZM289.853 257.308C288.519 257.308 287.389 257 286.465 256.384C285.556 255.768 285.006 254.793 284.815 253.458L286.465 253.084C286.583 253.788 286.803 254.345 287.125 254.756C287.448 255.152 287.844 255.438 288.313 255.614C288.797 255.775 289.311 255.856 289.853 255.856C290.66 255.856 291.298 255.695 291.767 255.372C292.237 255.049 292.471 254.617 292.471 254.074C292.471 253.517 292.244 253.128 291.789 252.908C291.349 252.673 290.741 252.483 289.963 252.336L289.061 252.182C288.372 252.065 287.741 251.881 287.169 251.632C286.597 251.383 286.143 251.045 285.805 250.62C285.468 250.195 285.299 249.659 285.299 249.014C285.299 248.046 285.673 247.291 286.421 246.748C287.169 246.205 288.159 245.934 289.391 245.934C290.609 245.934 291.591 246.213 292.339 246.77C293.102 247.313 293.593 248.083 293.813 249.08L292.185 249.498C292.053 248.721 291.738 248.178 291.239 247.87C290.741 247.547 290.125 247.386 289.391 247.386C288.658 247.386 288.079 247.525 287.653 247.804C287.228 248.068 287.015 248.464 287.015 248.992C287.015 249.505 287.213 249.887 287.609 250.136C288.02 250.371 288.563 250.547 289.237 250.664L290.139 250.818C290.902 250.95 291.584 251.133 292.185 251.368C292.801 251.588 293.285 251.911 293.637 252.336C294.004 252.761 294.187 253.319 294.187 254.008C294.187 255.064 293.791 255.878 292.999 256.45C292.222 257.022 291.173 257.308 289.853 257.308ZM300.845 257C300.229 257 299.752 256.831 299.415 256.494C299.092 256.157 298.931 255.695 298.931 255.108V247.76H295.697V246.242H298.931V242.414H300.669V246.242H304.189V247.76H300.669V254.844C300.669 255.284 300.881 255.504 301.307 255.504H303.705V257H300.845ZM312.588 257V241.6H316.108L320.2 255.834H320.486L324.578 241.6H328.098V257H326.316V242.81H326.008L321.938 257H318.748L314.678 242.81H314.37V257H312.588ZM336.661 257.308C335.576 257.308 334.615 257.081 333.779 256.626C332.958 256.171 332.313 255.533 331.843 254.712C331.389 253.876 331.161 252.893 331.161 251.764V251.478C331.161 250.363 331.389 249.388 331.843 248.552C332.313 247.716 332.958 247.071 333.779 246.616C334.615 246.161 335.576 245.934 336.661 245.934C337.747 245.934 338.7 246.161 339.521 246.616C340.357 247.071 341.003 247.716 341.457 248.552C341.927 249.388 342.161 250.363 342.161 251.478V251.764C342.161 252.893 341.927 253.876 341.457 254.712C341.003 255.533 340.357 256.171 339.521 256.626C338.7 257.081 337.747 257.308 336.661 257.308ZM336.661 255.746C337.805 255.746 338.715 255.387 339.389 254.668C340.079 253.935 340.423 252.952 340.423 251.72V251.522C340.423 250.29 340.079 249.315 339.389 248.596C338.715 247.863 337.805 247.496 336.661 247.496C335.532 247.496 334.623 247.863 333.933 248.596C333.244 249.315 332.899 250.29 332.899 251.522V251.72C332.899 252.952 333.244 253.935 333.933 254.668C334.623 255.387 335.532 255.746 336.661 255.746ZM345.289 257V246.242H346.983V248.068H347.291C347.526 247.555 347.922 247.093 348.479 246.682C349.051 246.257 349.887 246.044 350.987 246.044C351.794 246.044 352.512 246.213 353.143 246.55C353.788 246.887 354.302 247.386 354.683 248.046C355.064 248.706 355.255 249.52 355.255 250.488V257H353.517V250.62C353.517 249.549 353.246 248.772 352.703 248.288C352.175 247.804 351.456 247.562 350.547 247.562C349.506 247.562 348.655 247.899 347.995 248.574C347.35 249.249 347.027 250.253 347.027 251.588V257H345.289ZM358.781 257V246.242H360.519V257H358.781ZM359.661 244.57C359.28 244.57 358.957 244.445 358.693 244.196C358.444 243.947 358.319 243.631 358.319 243.25C358.319 242.854 358.444 242.531 358.693 242.282C358.957 242.033 359.28 241.908 359.661 241.908C360.042 241.908 360.358 242.033 360.607 242.282C360.856 242.531 360.981 242.854 360.981 243.25C360.981 243.631 360.856 243.947 360.607 244.196C360.358 244.445 360.042 244.57 359.661 244.57ZM368.134 257C367.518 257 367.041 256.831 366.704 256.494C366.381 256.157 366.22 255.695 366.22 255.108V247.76H362.986V246.242H366.22V242.414H367.958V246.242H371.478V247.76H367.958V254.844C367.958 255.284 368.17 255.504 368.596 255.504H370.994V257H368.134ZM378.878 257.308C377.793 257.308 376.832 257.081 375.996 256.626C375.175 256.171 374.529 255.533 374.06 254.712C373.605 253.876 373.378 252.893 373.378 251.764V251.478C373.378 250.363 373.605 249.388 374.06 248.552C374.529 247.716 375.175 247.071 375.996 246.616C376.832 246.161 377.793 245.934 378.878 245.934C379.963 245.934 380.917 246.161 381.738 246.616C382.574 247.071 383.219 247.716 383.674 248.552C384.143 249.388 384.378 250.363 384.378 251.478V251.764C384.378 252.893 384.143 253.876 383.674 254.712C383.219 255.533 382.574 256.171 381.738 256.626C380.917 257.081 379.963 257.308 378.878 257.308ZM378.878 255.746C380.022 255.746 380.931 255.387 381.606 254.668C382.295 253.935 382.64 252.952 382.64 251.72V251.522C382.64 250.29 382.295 249.315 381.606 248.596C380.931 247.863 380.022 247.496 378.878 247.496C377.749 247.496 376.839 247.863 376.15 248.596C375.461 249.315 375.116 250.29 375.116 251.522V251.72C375.116 252.952 375.461 253.935 376.15 254.668C376.839 255.387 377.749 255.746 378.878 255.746ZM387.506 257V246.242H389.2V247.562H389.508C389.698 247.093 389.992 246.748 390.388 246.528C390.784 246.308 391.304 246.198 391.95 246.198H393.226V247.782H391.84C391.062 247.782 390.432 248.002 389.948 248.442C389.478 248.867 389.244 249.535 389.244 250.444V257H387.506ZM395.799 257V246.242H397.537V257H395.799ZM396.679 244.57C396.297 244.57 395.975 244.445 395.711 244.196C395.461 243.947 395.337 243.631 395.337 243.25C395.337 242.854 395.461 242.531 395.711 242.282C395.975 242.033 396.297 241.908 396.679 241.908C397.06 241.908 397.375 242.033 397.625 242.282C397.874 242.531 397.999 242.854 397.999 243.25C397.999 243.631 397.874 243.947 397.625 244.196C397.375 244.445 397.06 244.57 396.679 244.57ZM401.191 257V246.242H402.885V248.068H403.193C403.428 247.555 403.824 247.093 404.381 246.682C404.953 246.257 405.789 246.044 406.889 246.044C407.696 246.044 408.415 246.213 409.045 246.55C409.691 246.887 410.204 247.386 410.585 248.046C410.967 248.706 411.157 249.52 411.157 250.488V257H409.419V250.62C409.419 249.549 409.148 248.772 408.605 248.288C408.077 247.804 407.359 247.562 406.449 247.562C405.408 247.562 404.557 247.899 403.897 248.574C403.252 249.249 402.929 250.253 402.929 251.588V257H401.191ZM414.155 251.676V251.368C414.155 250.239 414.383 249.271 414.837 248.464C415.292 247.657 415.908 247.034 416.685 246.594C417.463 246.154 418.313 245.934 419.237 245.934C420.367 245.934 421.232 246.154 421.833 246.594C422.449 247.019 422.904 247.496 423.197 248.024H423.505V246.242H425.155V259.508C425.155 260.095 424.994 260.557 424.671 260.894C424.349 261.231 423.879 261.4 423.263 261.4H415.959V259.86H422.801C423.241 259.86 423.461 259.64 423.461 259.2V255.108H423.153C422.977 255.431 422.728 255.746 422.405 256.054C422.083 256.362 421.665 256.619 421.151 256.824C420.638 257.015 420 257.11 419.237 257.11C418.313 257.11 417.463 256.89 416.685 256.45C415.908 256.01 415.292 255.387 414.837 254.58C414.383 253.759 414.155 252.791 414.155 251.676ZM419.699 255.57C420.814 255.57 421.716 255.218 422.405 254.514C423.109 253.81 423.461 252.842 423.461 251.61V251.434C423.461 250.187 423.109 249.219 422.405 248.53C421.716 247.826 420.814 247.474 419.699 247.474C418.599 247.474 417.69 247.826 416.971 248.53C416.267 249.219 415.915 250.187 415.915 251.434V251.61C415.915 252.842 416.267 253.81 416.971 254.514C417.69 255.218 418.599 255.57 419.699 255.57Z" fill="url(#paint1_linear_1827_2)"/>
<path d="M1192.86 145.029C1192.86 138.462 1198.18 133.139 1204.75 133.139V133.139C1211.32 133.139 1216.64 138.462 1216.64 145.029V281.554H1192.86V145.029Z" fill="url(#paint2_linear_1827_2)"/>
<path d="M1234.68 194.227C1234.68 187.661 1240 182.337 1246.57 182.337V182.337C1253.14 182.337 1258.46 187.661 1258.46 194.227V281.554H1234.68V194.227Z" fill="url(#paint3_linear_1827_2)"/>
<path d="M1276.5 131.909C1276.5 125.343 1281.82 120.02 1288.39 120.02V120.02C1294.95 120.02 1300.28 125.343 1300.28 131.909V281.554H1276.5V131.909Z" fill="url(#paint4_linear_1827_2)"/>
<path d="M1324.88 170.449C1324.88 163.882 1330.2 158.559 1336.77 158.559V158.559C1343.33 158.559 1348.65 163.882 1348.65 170.449V281.555H1324.88V170.449Z" fill="url(#paint5_linear_1827_2)"/>
<path d="M1366.69 245.885C1366.69 239.319 1372.02 233.996 1378.58 233.996V233.996C1385.15 233.996 1390.47 239.319 1390.47 245.885V281.554H1366.69V245.885Z" fill="url(#paint6_linear_1827_2)"/>
<rect x="1168.97" y="96.1251" width="239.661" height="210.142" fill="#91A7FF" fill-opacity="0.05" stroke="url(#paint7_linear_1827_2)" stroke-width="1.41035"/>
<path d="M1371.63 356.893C1373.72 356.893 1375.42 358.59 1375.42 360.683V360.683C1375.42 362.775 1373.72 364.472 1371.63 364.472L1242.79 364.472C1240.69 364.472 1239 362.775 1239 360.683V360.683C1239 358.59 1240.69 356.893 1242.79 356.893L1371.63 356.893Z" fill="url(#paint8_linear_1827_2)"/>
<path d="M1321.1 340.472C1323.2 340.472 1324.89 342.169 1324.89 344.262V344.262C1324.89 346.354 1323.2 348.051 1321.1 348.051L1242.79 348.051C1240.69 348.051 1239 346.354 1239 344.262V344.262C1239 342.169 1240.69 340.472 1242.79 340.472L1321.1 340.472Z" fill="url(#paint9_linear_1827_2)"/>
<path d="M1394.37 324.051C1396.46 324.051 1398.16 325.747 1398.16 327.84V327.84C1398.16 329.933 1396.46 331.63 1394.37 331.63L1242.79 331.63C1240.69 331.63 1239 329.933 1239 327.84V327.84C1239 325.747 1240.69 324.051 1242.79 324.051L1394.37 324.051Z" fill="url(#paint10_linear_1827_2)"/>
<line x1="1234.55" y1="172.285" x2="1251.47" y2="172.285" stroke="url(#paint11_linear_1827_2)" stroke-width="1.41035"/>
<line x1="1192.24" y1="122.922" x2="1209.16" y2="122.922" stroke="url(#paint12_linear_1827_2)" stroke-width="1.41035"/>
<line x1="1300.83" y1="107.409" x2="1283.91" y2="107.409" stroke="url(#paint13_linear_1827_2)" stroke-width="1.41035"/>
<line x1="1344.56" y1="144.078" x2="1330.45" y2="144.078" stroke="url(#paint14_linear_1827_2)" stroke-width="1.41035"/>
<line x1="1384.05" y1="220.236" x2="1375.58" y2="220.236" stroke="url(#paint15_linear_1827_2)" stroke-width="1.41035"/>
<line x1="1234.55" y1="168.054" x2="1258.52" y2="168.054" stroke="url(#paint16_linear_1827_2)" stroke-width="1.41035"/>
<line x1="1192.24" y1="118.691" x2="1216.21" y2="118.691" stroke="url(#paint17_linear_1827_2)" stroke-width="1.41035"/>
<line x1="1300.83" y1="111.64" x2="1276.86" y2="111.64" stroke="url(#paint18_linear_1827_2)" stroke-width="1.41035"/>
<line x1="1344.56" y1="148.309" x2="1324.81" y2="148.309" stroke="url(#paint19_linear_1827_2)" stroke-width="1.41035"/>
<line x1="1384.05" y1="224.468" x2="1371.35" y2="224.468" stroke="url(#paint20_linear_1827_2)" stroke-width="1.41035"/>
<circle cx="1193.52" cy="344.262" r="24.9472" fill="#576499" stroke="#AE93FF" stroke-width="0.631575"/>
<path d="M1191.67 348.051L1189.74 319.059C1201.37 318.4 1213 323.013 1217.52 337.508L1191.67 348.051Z" fill="#AE93FF" fill-opacity="0.5"/>
<path d="M953.526 58.7896H1129.1L1236.47 113.105" stroke="#AE93FF" stroke-width="1.26315" stroke-linecap="round"/>
<circle cx="1235.84" cy="112.473" r="3.15788" fill="#AE93FF"/>
<circle cx="954.158" cy="58.1579" r="3.15788" fill="#AE93FF"/>
<path d="M1008.13 235.63H1115.94L1181.87 289.946" stroke="#AE93FF" stroke-width="1.26315" stroke-linecap="round"/>
<ellipse cx="1181.48" cy="289.314" rx="1.93905" ry="3.15788" fill="#AE93FF"/>
<ellipse cx="1008.52" cy="234.999" rx="1.93905" ry="3.15788" fill="#AE93FF"/>
</g>
<defs>
<linearGradient id="paint0_linear_1827_2" x1="91" y1="185" x2="553" y2="185" gradientUnits="userSpaceOnUse">
<stop offset="0.233428" stop-color="#AE93FF"/>
<stop offset="1" stop-color="#8359FF"/>
</linearGradient>
<linearGradient id="paint1_linear_1827_2" x1="91" y1="249.5" x2="427" y2="249.5" gradientUnits="userSpaceOnUse">
<stop stop-color="#BCC3CE"/>
<stop offset="0.504808" stop-color="white"/>
<stop offset="1" stop-color="#BCC3CE"/>
</linearGradient>
<linearGradient id="paint2_linear_1827_2" x1="1205.16" y1="133.139" x2="1205.16" y2="281.554" gradientUnits="userSpaceOnUse">
<stop stop-color="#AE93FF"/>
<stop offset="1" stop-color="#576499"/>
</linearGradient>
<linearGradient id="paint3_linear_1827_2" x1="1246.98" y1="182.337" x2="1246.98" y2="281.554" gradientUnits="userSpaceOnUse">
<stop stop-color="#AE93FF"/>
<stop offset="1" stop-color="#576499"/>
</linearGradient>
<linearGradient id="paint4_linear_1827_2" x1="1288.8" y1="120.02" x2="1288.8" y2="281.554" gradientUnits="userSpaceOnUse">
<stop stop-color="#AE93FF"/>
<stop offset="1" stop-color="#576499"/>
</linearGradient>
<linearGradient id="paint5_linear_1827_2" x1="1337.18" y1="158.559" x2="1337.18" y2="281.555" gradientUnits="userSpaceOnUse">
<stop stop-color="#AE93FF"/>
<stop offset="1" stop-color="#576499"/>
</linearGradient>
<linearGradient id="paint6_linear_1827_2" x1="1378.99" y1="233.996" x2="1378.99" y2="281.554" gradientUnits="userSpaceOnUse">
<stop stop-color="#AE93FF"/>
<stop offset="1" stop-color="#576499"/>
</linearGradient>
<linearGradient id="paint7_linear_1827_2" x1="1432.7" y1="70.0336" x2="1266.28" y2="223.056" gradientUnits="userSpaceOnUse">
<stop stop-color="#91A7FF"/>
<stop offset="1" stop-color="#576499" stop-opacity="0.2"/>
</linearGradient>
<linearGradient id="paint8_linear_1827_2" x1="1375.42" y1="360.813" x2="1239" y2="360.813" gradientUnits="userSpaceOnUse">
<stop stop-color="#AE93FF"/>
<stop offset="1" stop-color="#576499"/>
</linearGradient>
<linearGradient id="paint9_linear_1827_2" x1="1324.89" y1="344.392" x2="1239" y2="344.392" gradientUnits="userSpaceOnUse">
<stop stop-color="#AE93FF"/>
<stop offset="1" stop-color="#576499"/>
</linearGradient>
<linearGradient id="paint10_linear_1827_2" x1="1398.16" y1="327.971" x2="1239" y2="327.971" gradientUnits="userSpaceOnUse">
<stop stop-color="#AE93FF"/>
<stop offset="1" stop-color="#576499"/>
</linearGradient>
<linearGradient id="paint11_linear_1827_2" x1="1234.55" y1="173.49" x2="1249.48" y2="172.995" gradientUnits="userSpaceOnUse">
<stop stop-color="white"/>
<stop offset="0.4" stop-color="#91A7FF" stop-opacity="0.5"/>
</linearGradient>
<linearGradient id="paint12_linear_1827_2" x1="1192.24" y1="124.127" x2="1207.17" y2="123.632" gradientUnits="userSpaceOnUse">
<stop stop-color="white"/>
<stop offset="0.4" stop-color="#91A7FF" stop-opacity="0.5"/>
</linearGradient>
<linearGradient id="paint13_linear_1827_2" x1="1300.83" y1="106.204" x2="1285.9" y2="106.699" gradientUnits="userSpaceOnUse">
<stop stop-color="white"/>
<stop offset="0.4" stop-color="#91A7FF" stop-opacity="0.5"/>
</linearGradient>
<linearGradient id="paint14_linear_1827_2" x1="1344.56" y1="142.873" x2="1332.11" y2="143.217" gradientUnits="userSpaceOnUse">
<stop stop-color="white"/>
<stop offset="0.4" stop-color="#91A7FF" stop-opacity="0.5"/>
</linearGradient>
<linearGradient id="paint15_linear_1827_2" x1="1384.05" y1="219.031" x2="1376.57" y2="219.155" gradientUnits="userSpaceOnUse">
<stop stop-color="white"/>
<stop offset="0.4" stop-color="#91A7FF" stop-opacity="0.5"/>
</linearGradient>
<linearGradient id="paint16_linear_1827_2" x1="1234.55" y1="169.259" x2="1258.52" y2="169.259" gradientUnits="userSpaceOnUse">
<stop stop-color="white"/>
<stop offset="1" stop-color="#91A7FF"/>
</linearGradient>
<linearGradient id="paint17_linear_1827_2" x1="1192.24" y1="119.896" x2="1216.21" y2="119.896" gradientUnits="userSpaceOnUse">
<stop stop-color="white"/>
<stop offset="1" stop-color="#91A7FF"/>
</linearGradient>
<linearGradient id="paint18_linear_1827_2" x1="1300.83" y1="110.435" x2="1276.86" y2="110.435" gradientUnits="userSpaceOnUse">
<stop stop-color="white"/>
<stop offset="1" stop-color="#91A7FF"/>
</linearGradient>
<linearGradient id="paint19_linear_1827_2" x1="1344.56" y1="147.104" x2="1324.81" y2="147.104" gradientUnits="userSpaceOnUse">
<stop stop-color="white"/>
<stop offset="1" stop-color="#91A7FF"/>
</linearGradient>
<linearGradient id="paint20_linear_1827_2" x1="1384.05" y1="223.263" x2="1371.35" y2="223.263" gradientUnits="userSpaceOnUse">
<stop stop-color="white"/>
<stop offset="1" stop-color="#91A7FF"/>
</linearGradient>
<clipPath id="clip0_1827_2">
<rect width="1584" height="396" fill="white"/>
</clipPath>
</defs>
</svg>
